<?xml version="1.0" standalone="no"?>
<!DOCTYPE svg PUBLIC "-//W3C//DTD SVG 20010904//EN"
 "http://www.w3.org/TR/2001/REC-SVG-20010904/DTD/svg10.dtd">
<svg version="1.0" xmlns="http://www.w3.org/2000/svg"
 width="512.000000pt" height="512.000000pt" viewBox="0 0 512.000000 512.000000"
 preserveAspectRatio="xMidYMid meet">
<metadata>
Created by potrace 1.14, written by Peter Selinger 2001-2017
</metadata>
<g transform="translate(0.000000,512.000000) scale(0.100000,-0.100000)"
fill="#000000" stroke="none">
<path d="M905 4455 c-50 -49 -15 -135 55 -135 41 0 80 39 80 80 0 41 -39 80
-80 80 -19 0 -40 -9 -55 -25z"/>
<path d="M3785 4455 c-16 -15 -25 -36 -25 -55 0 -19 9 -40 25 -55 15 -16 36
-25 55 -25 19 0 40 9 55 25 16 15 25 36 25 55 0 19 -9 40 -25 55 -15 16 -36
25 -55 25 -19 0 -40 -9 -55 -25z"/>
<path d="M2355 4149 c-99 -13 -265 -55 -365 -94 -516 -198 -883 -632 -1001
-1185 -33 -153 -34 -446 -1 -607 21 -105 78 -287 106 -342 12 -21 7 -33 -42
-120 -153 -265 -238 -536 -218 -694 23 -179 165 -288 358 -274 159 13 304 62
548 188 85 44 161 78 170 75 8 -2 65 -23 127 -45 185 -67 304 -86 533 -85 163
0 212 4 300 23 430 92 787 331 1022 686 64 96 148 262 169 333 7 23 14 42 17
42 3 0 24 -18 48 -40 73 -67 84 -63 240 91 73 72 135 142 138 155 4 14 -22
125 -63 276 l-70 253 103 105 c127 129 207 237 274 368 98 190 152 401 152
594 0 93 -2 100 -26 125 -26 26 -27 26 -138 20 -330 -18 -633 -143 -869 -357
l-67 -62 -98 99 c-258 261 -563 415 -923 468 -114 16 -310 18 -424 4z m2371
-451 c-19 -118 -60 -247 -112 -350 -79 -157 -126 -212 -503 -591 l-366 -367
-225 225 -225 225 370 369 c400 397 456 444 633 522 108 47 257 88 359 97 94
8 91 13 69 -130z m-1268 -18 c37 -29 202 -193 198 -197 -2 -2 -102 24 -223 57
-121 33 -236 60 -254 60 -31 0 -49 -15 -169 -135 -180 -180 -181 -159 18 -358
84 -84 150 -156 146 -160 -4 -4 -143 -7 -309 -7 -332 0 -367 5 -457 62 -88 56
-146 143 -168 254 -35 177 89 372 273 429 32 10 147 14 480 14 427 1 440 0
465 -19z m-1309 -869 c96 -49 113 -176 34 -254 -51 -52 -88 -57 -391 -57 -262
0 -270 -1 -313 -23 -64 -34 -102 -93 -107 -166 -7 -100 29 -170 112 -214 41
-22 47 -22 606 -27 l565 -5 63 -29 c34 -16 62 -32 62 -35 0 -9 -199 -188 -324
-291 -125 -103 -257 -203 -415 -313 -153 -108 -161 -109 -275 -33 -378 252
-609 656 -641 1116 -6 85 7 286 21 333 5 16 37 17 485 17 455 0 482 -1 518
-19z m1347 -440 c-29 -32 -137 -99 -202 -125 -66 -27 -180 -53 -190 -44 -11
12 34 164 69 235 19 38 54 93 77 122 l42 53 111 -110 c109 -109 111 -111 93
-131z m-579 -548 c12 -33 18 -75 18 -133 0 -74 -4 -93 -31 -150 -39 -83 -106
-150 -192 -192 l-66 -33 -220 -3 -220 -4 134 103 c158 120 318 252 450 372 52
47 98 86 102 87 3 0 15 -21 25 -47z m-1661 -185 c100 -143 247 -284 440 -424
l29 -21 -105 -53 c-263 -132 -460 -175 -562 -123 -76 38 -84 175 -22 363 24
73 148 340 158 340 2 0 30 -37 62 -82z"/>
<path d="M4165 3571 c-95 -43 -145 -118 -145 -219 0 -180 187 -295 348 -213
82 42 142 156 128 243 -25 155 -194 252 -331 189z m139 -162 c33 -26 36 -79 6
-109 -30 -30 -83 -27 -109 6 -28 35 -26 69 4 99 30 30 64 32 99 4z"/>
<path d="M314 3424 c-45 -16 -107 -72 -131 -118 -21 -40 -27 -123 -13 -176 16
-59 98 -143 155 -159 92 -25 176 -4 242 61 98 97 98 236 -1 334 -72 73 -156
92 -252 58z m120 -155 c58 -27 55 -115 -5 -139 -63 -26 -125 36 -100 99 19 44
60 60 105 40z"/>
<path d="M4505 1295 c-50 -49 -15 -135 55 -135 41 0 80 39 80 80 0 41 -39 80
-80 80 -19 0 -40 -9 -55 -25z"/>
<path d="M3065 375 c-50 -49 -15 -135 55 -135 41 0 80 39 80 80 0 41 -39 80
-80 80 -19 0 -40 -9 -55 -25z"/>
</g>
</svg>
